<svg aria-hidden="true" style="position: absolute; width: 0; height: 0; overflow: hidden;" version="1.1" xmlns="http://www.w3.org/2000/svg" xmlns:xlink="http://www.w3.org/1999/xlink">
<defs>
<symbol id="icon-location_city" viewBox="0 0 24 24">
<title>location_city</title>
<path d="M18.984 15v-2.016h-1.969v2.016h1.969zM18.984 18.984v-1.969h-1.969v1.969h1.969zM12.984 6.984v-1.969h-1.969v1.969h1.969zM12.984 11.016v-2.016h-1.969v2.016h1.969zM12.984 15v-2.016h-1.969v2.016h1.969zM12.984 18.984v-1.969h-1.969v1.969h1.969zM6.984 11.016v-2.016h-1.969v2.016h1.969zM6.984 15v-2.016h-1.969v2.016h1.969zM6.984 18.984v-1.969h-1.969v1.969h1.969zM15 11.016h6v9.984h-18v-14.016h6v-1.969l3-3 3 3v6z"></path>
</symbol>
<symbol id="icon-person_outlineperm_identity" viewBox="0 0 24 24">
<title>person_outlineperm_identity</title>
<path d="M12 12.984q1.5 0 3.281 0.422t3.258 1.406 1.477 2.203v3h-16.031v-3q0-1.219 1.477-2.203t3.258-1.406 3.281-0.422zM12 3.984q1.641 0 2.813 1.195t1.172 2.836-1.172 2.813-2.813 1.172-2.813-1.172-1.172-2.813 1.172-2.836 2.813-1.195zM12 14.906q-2.063 0-4.078 0.773t-2.016 1.336v1.078h12.188v-1.078q0-0.563-2.016-1.336t-4.078-0.773zM12 5.906q-0.891 0-1.5 0.609t-0.609 1.5 0.609 1.477 1.5 0.586 1.5-0.586 0.609-1.477-0.609-1.5-1.5-0.609z"></path>
</symbol>
<symbol id="icon-star_outline" viewBox="0 0 24 24">
<title>star_outline</title>
<path d="M12 15.422l3.75 2.25-0.984-4.266 3.328-2.906-4.406-0.375-1.688-4.031-1.688 4.031-4.406 0.375 3.328 2.906-0.984 4.266zM21.984 9.234l-5.438 4.734 1.641 7.031-6.188-3.75-6.188 3.75 1.641-7.031-5.438-4.734 7.172-0.609 2.813-6.609 2.813 6.609z"></path>
</symbol>
<symbol id="icon-favorite_outline" viewBox="0 0 24 24">
<title>favorite_outline</title>
<path d="M12.094 18.563q2.25-2.016 3.328-3.047t2.344-2.438 1.758-2.484 0.492-2.109q0-1.5-1.008-2.484t-2.508-0.984q-1.172 0-2.18 0.656t-1.383 1.688h-1.875q-0.375-1.031-1.383-1.688t-2.18-0.656q-1.5 0-2.508 0.984t-1.008 2.484q0 1.031 0.492 2.109t1.758 2.484 2.344 2.438 3.328 3.047l0.094 0.094zM16.5 3q2.344 0 3.914 1.594t1.57 3.891q0 1.359-0.516 2.648t-1.898 2.883-2.508 2.672-3.609 3.328l-1.453 1.313-1.453-1.266q-3.234-2.906-4.664-4.359t-2.648-3.422-1.219-3.797q0-2.297 1.57-3.891t3.914-1.594q2.719 0 4.5 2.109 1.781-2.109 4.5-2.109z"></path>
</symbol>
<symbol id="icon-youtube_searched_for" viewBox="0 0 24 24">
<title>youtube_searched_for</title>
<path d="M17.016 14.016l4.969 4.969-1.453 1.5-5.016-5.016v-0.75l-0.281-0.281q-0.75 0.609-1.992 1.078t-2.227 0.469q-1.875 0-3.328-0.891l1.5-1.453q0.938 0.375 1.828 0.375 1.875 0 3.188-1.313t1.313-3.188-1.313-3.188-3.188-1.313-3.188 1.313-1.313 3.188h3.469l-4.125 3.984-3.844-3.984h2.484q0-2.672 1.922-4.594t4.594-1.922q2.719 0 4.617 1.898t1.898 4.617q0 0.984-0.469 2.227t-1.125 1.992l0.281 0.281h0.797z"></path>
</symbol>
<symbol id="icon-flight_takeoff" viewBox="0 0 24 24">
<title>flight_takeoff</title>
<path d="M22.078 9.656q0.141 0.609-0.164 1.125t-0.914 0.703q-5.813 1.547-9.656 2.578l-5.297 1.406-1.594 0.469-2.625-4.5 1.453-0.375 1.969 1.5 4.969-1.313-4.125-7.172 1.922-0.516 6.891 6.422 5.344-1.406q0.609-0.188 1.148 0.141t0.68 0.938zM2.484 18.984h19.031v2.016h-19.031v-2.016z"></path>
</symbol>
<symbol id="icon-home_filled" viewBox="0 0 24 24">
<title>home_filled</title>
<path d="M12 3l8.016 6v12h-5.016v-6.984h-6v6.984h-5.016v-12z"></path>
</symbol>
<symbol id="icon-thumb_up_off_alt" viewBox="0 0 24 24">
<title>thumb_up_off_alt</title>
<path d="M3.984 9q0.422 0 0.727 0.281t0.305 0.703v9q0 0.422-0.305 0.727t-0.727 0.305h-1.969v-11.016h1.969zM14.016 2.016l0.422 0.469q0.563 0.563 0.891 1.219 0.141 0.328 0.094 0.656l-0.938 4.641h5.531q0.797 0 1.383 0.609t0.586 1.406v1.078q0 0.422-0.141 0.797l-2.672 6.141q-0.609 0.984-1.734 0.984h-8.109q-0.984 0-1.664-0.68t-0.68-1.664v-7.828q0-0.844 0.609-1.453zM13.125 5.719l-4.125 4.078v7.875q0 0.328 0.328 0.328h8.109l2.578-5.906v-1.078h-5.531q-0.891 0-1.523-0.727t-0.398-1.664z"></path>
</symbol>
<symbol id="icon-emoji_people" viewBox="0 0 24 24">
<title>emoji_people</title>
<path d="M15.891 8.109l4.453 4.5-1.406 1.406-3.938-3.984v11.953h-2.016v-6h-1.969v6h-2.016v-13.266q-2.203-0.656-3.609-2.508t-1.406-4.195h2.016q0 2.063 1.453 3.516t3.516 1.453h2.578q1.219 0 2.344 1.125zM9.984 3.984q0-0.844 0.586-1.406t1.43-0.563 1.43 0.563 0.586 1.406-0.586 1.43-1.43 0.586-1.43-0.586-0.586-1.43z"></path>
</symbol>
<symbol id="icon-car_rental" viewBox="0 0 24 24">
<title>car_rental</title>
<path d="M8.016 5.016q0.422 0 0.703-0.305t0.281-0.727-0.281-0.703-0.703-0.281-0.727 0.281-0.305 0.703 0.305 0.727 0.727 0.305zM10.828 3h8.156v2.016h-0.984v1.969h-2.016v-1.969h-5.156q-0.703 1.969-2.813 1.969-1.219 0-2.109-0.891t-0.891-2.109 0.891-2.109 2.109-0.891q0.891 0 1.711 0.586t1.102 1.43zM6.281 14.016h11.438l-1.313-4.031h-8.766zM16.219 18q0.516 0 0.867-0.352t0.352-0.867-0.352-0.867-0.867-0.352-0.867 0.352-0.352 0.867 0.352 0.867 0.867 0.352zM7.781 18q0.516 0 0.867-0.352t0.352-0.867-0.352-0.867-0.867-0.352-0.867 0.352-0.352 0.867 0.352 0.867 0.867 0.352zM16.406 9q0.656 0 0.938 0.703l1.641 4.969v6.844q0 0.469-0.469 0.469h-1.031q-0.469 0-0.469-0.469v-1.5h-10.031v1.5q0 0.469-0.469 0.469h-1.031q-0.469 0-0.469-0.516v-6.797l1.641-4.969q0.234-0.703 0.938-0.703h8.813z"></path>
</symbol>
</defs>
</svg>
